# Blender 4.3.2
# www.blender.org
mtllib title.mtl
o Vert.018
v 1.112584 -0.069469 0.000000
v 1.182287 -0.069469 0.000000
v 1.183706 -0.048748 0.000000
v 1.178737 -0.018220 0.000000
v 1.157438 0.017632 0.000000
v 1.122295 0.038221 0.000000
v 1.067984 0.042836 0.000000
v 1.028936 0.034317 0.000000
v 0.996278 0.011243 0.000000
v 0.978529 -0.024255 0.000000
v 0.978529 -0.056913 0.000000
v 0.987404 -0.083181 0.000000
v 1.007637 -0.107675 0.000000
v 1.035326 -0.122939 0.000000
v 1.068694 -0.134654 0.000000
v 1.096737 -0.143528 0.000000
v 1.109516 -0.152402 0.000000
v 1.109516 -0.163407 0.000000
v 1.102062 -0.170151 0.000000
v 1.066919 -0.170151 0.000000
v 1.053785 -0.158082 0.000000
v 1.049880 -0.139268 0.000000
v 1.049170 -0.130749 0.000000
v 0.972850 -0.130749 0.000000
v 0.972850 -0.165892 0.000000
v 0.981014 -0.185771 0.000000
v 0.995568 -0.208489 0.000000
v 1.020061 -0.230143 -0.000000
v 1.053074 -0.245052 -0.000000
v 1.120520 -0.245052 -0.000000
v 1.150694 -0.234403 -0.000000
v 1.175187 -0.214524 -0.000000
v 1.186546 -0.192516 0.000000
v 1.190096 -0.171572 0.000000
v 1.190096 -0.148499 0.000000
v 1.184132 -0.119958 0.000000
v 1.170369 -0.099005 0.000000
v 1.148183 -0.081954 0.000000
v 1.126818 -0.076408 0.000000
v 1.106070 -0.070245 0.000000
v 1.082446 -0.061823 0.000000
v 1.067655 -0.053401 0.000000
v 1.058616 -0.046211 0.000000
v 1.058616 -0.036350 0.000000
v 1.075872 -0.031009 0.000000
v 1.091896 -0.035118 0.000000
v 1.102167 -0.041691 0.000000
v 1.106481 -0.052990 0.000000
v -0.240803 0.357129 0.000000
v -0.171101 0.357129 0.000000
v -0.169681 0.377850 0.000000
v -0.174651 0.408377 0.000000
v -0.195949 0.444231 0.000000
v -0.231092 0.464819 0.000000
v -0.285404 0.469434 0.000000
v -0.324451 0.460915 0.000000
v -0.357109 0.437841 0.000000
v -0.374858 0.402343 0.000000
v -0.374858 0.369685 0.000000
v -0.365984 0.343417 0.000000
v -0.345750 0.318923 0.000000
v -0.318062 0.303659 0.000000
v -0.284694 0.291945 0.000000
v -0.256650 0.283070 0.000000
v -0.243871 0.274196 0.000000
v -0.243871 0.263191 0.000000
v -0.251326 0.256447 0.000000
v -0.286468 0.256447 0.000000
v -0.299603 0.268516 0.000000
v -0.303507 0.287330 0.000000
v -0.304217 0.295849 0.000000
v -0.380538 0.295849 0.000000
v -0.380538 0.260706 0.000000
v -0.372373 0.240827 0.000000
v -0.357819 0.218109 0.000000
v -0.333326 0.196455 0.000000
v -0.300313 0.181546 0.000000
v -0.232867 0.181546 0.000000
v -0.202694 0.192195 0.000000
v -0.178200 0.212074 0.000000
v -0.166841 0.234082 0.000000
v -0.163291 0.255026 0.000000
v -0.163291 0.278100 0.000000
v -0.169255 0.306640 0.000000
v -0.183018 0.327593 0.000000
v -0.205205 0.344644 0.000000
v -0.226569 0.350190 0.000000
v -0.247317 0.356353 0.000000
v -0.270941 0.364775 0.000000
v -0.285732 0.373198 0.000000
v -0.294771 0.380387 0.000000
v -0.294771 0.390248 0.000000
v -0.277515 0.395589 0.000000
v -0.261492 0.391480 0.000000
v -0.251220 0.384907 0.000000
v -0.246906 0.373608 0.000000
v -0.099334 0.456854 0.000000
v -0.099334 0.182456 0.000000
v -0.015914 0.182456 0.000000
v -0.015914 0.284689 0.000000
v 0.057921 0.179971 0.000000
v 0.133177 0.179971 0.000000
v 0.133177 0.210499 0.000000
v 0.047130 0.337439 0.000000
v 0.130195 0.424763 0.000000
v 0.130195 0.455860 0.000000
v 0.050964 0.455860 0.000000
v -0.016340 0.385148 0.000000
v -0.016340 0.456226 0.000000
v 0.273632 0.178709 0.000000
v 0.273632 0.289462 0.000000
v 0.188863 0.427477 0.000000
v 0.188863 0.458148 0.000000
v 0.268094 0.458148 0.000000
v 0.311175 0.376787 0.000000
v 0.348719 0.178709 0.000000
v 0.348719 0.289462 0.000000
v 0.433487 0.427477 0.000000
v 0.433487 0.458148 0.000000
v 0.354256 0.458148 0.000000
v -0.911454 -0.069469 0.000000
v -0.841752 -0.069469 0.000000
v -0.840332 -0.048748 0.000000
v -0.845302 -0.018220 0.000000
v -0.866601 0.017632 0.000000
v -0.901744 0.038221 0.000000
v -0.956055 0.042836 0.000000
v -0.995103 0.034317 0.000000
v -1.027761 0.011243 0.000000
v -1.045509 -0.024255 0.000000
v -1.045509 -0.056913 0.000000
v -1.036635 -0.083181 0.000000
v -1.016401 -0.107675 0.000000
v -0.988713 -0.122939 0.000000
v -0.955345 -0.134654 0.000000
v -0.927302 -0.143528 0.000000
v -0.914523 -0.152402 0.000000
v -0.914523 -0.163407 0.000000
v -0.921977 -0.170151 0.000000
v -0.957120 -0.170151 0.000000
v -0.970254 -0.158082 0.000000
v -0.974159 -0.139268 0.000000
v -0.974869 -0.130749 0.000000
v -1.051189 -0.130749 0.000000
v -1.051189 -0.165892 0.000000
v -1.043025 -0.185771 0.000000
v -1.028471 -0.208489 0.000000
v -1.003977 -0.230143 -0.000000
v -0.970964 -0.245052 -0.000000
v -0.903518 -0.245052 -0.000000
v -0.873345 -0.234403 -0.000000
v -0.848852 -0.214524 -0.000000
v -0.837492 -0.192516 0.000000
v -0.833943 -0.171572 0.000000
v -0.833943 -0.148499 0.000000
v -0.839906 -0.119958 0.000000
v -0.853670 -0.099005 0.000000
v -0.875856 -0.081954 0.000000
v -0.897221 -0.076408 0.000000
v -0.917969 -0.070245 0.000000
v -0.941593 -0.061823 0.000000
v -0.956384 -0.053401 0.000000
v -0.965422 -0.046211 0.000000
v -0.965422 -0.036350 0.000000
v -0.948166 -0.031009 0.000000
v -0.932143 -0.035118 0.000000
v -0.921872 -0.041691 0.000000
v -0.917558 -0.052990 0.000000
v -0.694784 -0.059527 -0.000000
v -0.694784 0.029870 -0.000000
v -0.772655 0.029870 -0.000000
v -0.772655 -0.236823 -0.000000
v -0.694784 -0.236823 -0.000000
v -0.694784 -0.134809 -0.000000
v -0.632609 -0.059527 -0.000000
v -0.632609 0.029870 -0.000000
v -0.554738 0.029870 -0.000000
v -0.554738 -0.236823 -0.000000
v -0.632609 -0.236823 -0.000000
v -0.632609 -0.134809 -0.000000
v -0.363696 0.041883 -0.000000
v -0.389022 0.038616 -0.000000
v -0.416375 0.029635 -0.000000
v -0.444544 0.012080 -0.000000
v -0.466998 -0.013232 -0.000000
v -0.480062 -0.039768 -0.000000
v -0.488636 -0.072428 -0.000000
v -0.488636 -0.129583 -0.000000
v -0.480471 -0.157753 -0.000000
v -0.467815 -0.187147 -0.000000
v -0.443320 -0.214499 -0.000000
v -0.416375 -0.230830 -0.000000
v -0.390655 -0.240220 -0.000000
v -0.363696 -0.240220 -0.000000
v -0.363696 -0.166054 -0.000000
v -0.378453 -0.166054 -0.000000
v -0.395180 -0.153580 -0.000000
v -0.405953 -0.137703 -0.000000
v -0.410773 -0.121259 -0.000000
v -0.410773 -0.077552 -0.000000
v -0.400014 -0.050052 -0.000000
v -0.385257 -0.037387 -0.000001
v -0.363696 -0.033607 -0.000000
v -0.338371 0.038616 -0.000000
v -0.311018 0.029635 -0.000000
v -0.282848 0.012080 -0.000000
v -0.260395 -0.013232 -0.000000
v -0.247331 -0.039768 -0.000000
v -0.238757 -0.072428 -0.000000
v -0.238757 -0.129583 -0.000000
v -0.246922 -0.157753 -0.000000
v -0.259578 -0.187147 -0.000000
v -0.284073 -0.214499 -0.000000
v -0.311018 -0.230830 -0.000000
v -0.336738 -0.240220 -0.000000
v -0.348940 -0.166054 -0.000000
v -0.332213 -0.153580 -0.000000
v -0.321440 -0.137703 -0.000000
v -0.316620 -0.121259 -0.000000
v -0.316620 -0.077552 -0.000000
v -0.327379 -0.050052 -0.000000
v -0.342136 -0.037387 -0.000001
v -0.060531 0.041883 -0.000000
v -0.085857 0.038616 -0.000000
v -0.113210 0.029635 -0.000000
v -0.141379 0.012080 -0.000000
v -0.163833 -0.013232 -0.000000
v -0.176897 -0.039768 -0.000000
v -0.185470 -0.072428 -0.000000
v -0.185470 -0.129583 -0.000000
v -0.177305 -0.157753 -0.000000
v -0.164649 -0.187147 -0.000000
v -0.140154 -0.214499 -0.000000
v -0.113210 -0.230830 -0.000000
v -0.087490 -0.240220 -0.000000
v -0.060531 -0.240220 -0.000000
v -0.060531 -0.166054 -0.000000
v -0.075288 -0.166054 -0.000000
v -0.092015 -0.153580 -0.000000
v -0.102788 -0.137703 -0.000000
v -0.107607 -0.121259 -0.000000
v -0.107607 -0.077552 -0.000000
v -0.096849 -0.050052 -0.000000
v -0.082092 -0.037387 -0.000001
v -0.060531 -0.033607 -0.000000
v -0.035205 0.038616 -0.000000
v -0.007853 0.029635 -0.000000
v 0.020317 0.012080 -0.000000
v 0.042771 -0.013232 -0.000000
v 0.055835 -0.039768 -0.000000
v 0.064408 -0.072428 -0.000000
v 0.064408 -0.129583 -0.000000
v 0.056243 -0.157753 -0.000000
v 0.043587 -0.187147 -0.000000
v 0.019092 -0.214499 -0.000000
v -0.007853 -0.230830 -0.000000
v -0.033572 -0.240220 -0.000000
v -0.045775 -0.166054 -0.000000
v -0.029048 -0.153580 -0.000000
v -0.018275 -0.137703 -0.000000
v -0.013455 -0.121259 -0.000000
v -0.013455 -0.077552 -0.000000
v -0.024214 -0.050052 -0.000000
v -0.038971 -0.037387 -0.000001
v 0.226809 0.040471 -0.000000
v 0.118528 0.040471 -0.000000
v 0.118528 -0.034422 -0.000000
v 0.187924 -0.034422 -0.000000
v 0.187924 -0.232647 -0.000000
v 0.226809 -0.232647 -0.000000
v 0.335089 0.040471 -0.000000
v 0.335089 -0.034422 -0.000000
v 0.265693 -0.034422 -0.000000
v 0.265693 -0.232647 -0.000000
v 0.409842 0.040564 -0.000000
v 0.409842 -0.237923 -0.000000
v 0.616618 -0.237923 -0.000000
v 0.616618 -0.162786 -0.000000
v 0.616618 0.040564 -0.000000
v 0.616618 -0.032799 -0.000000
v 0.486163 -0.032799 -0.000000
v 0.486163 -0.057056 -0.000000
v 0.602419 -0.057056 -0.000000
v 0.486163 -0.162786 -0.000000
v 0.486163 -0.133944 -0.000000
v 0.602419 -0.133944 -0.000000
v 0.683693 0.039520 0.000000
v 0.683695 -0.241507 -0.000000
v 0.765041 -0.241510 -0.000000
v 0.765041 -0.145366 -0.000000
v 0.818042 -0.145366 -0.000000
v 0.818042 -0.241510 -0.000000
v 0.896433 -0.241510 -0.000000
v 0.896433 -0.134030 -0.000000
v 0.891010 -0.115541 0.000000
v 0.882628 -0.103709 0.000000
v 0.891749 -0.088671 0.000000
v 0.899145 -0.072648 0.000000
v 0.899145 -0.023838 0.000000
v 0.889284 -0.003377 0.000000
v 0.876219 0.013879 0.000000
v 0.852800 0.030643 0.000000
v 0.827902 0.039520 0.000000
v 0.764153 -0.036909 -0.000000
v 0.764153 -0.067620 -0.000000
v 0.808341 -0.067620 -0.000000
v 0.817651 -0.059496 -0.000000
v 0.808341 -0.036909 -0.000000
v 0.817651 -0.044438 -0.000000
v 1.112584 -0.069469 -0.106183
v 1.182287 -0.069469 -0.106183
v 1.183706 -0.048748 -0.106183
v 1.178737 -0.018220 -0.106183
v 1.157438 0.017632 -0.106183
v 1.122295 0.038221 -0.106183
v 1.067984 0.042836 -0.106183
v 1.028936 0.034317 -0.106183
v 0.996278 0.011243 -0.106183
v 0.978529 -0.024255 -0.106183
v 0.978529 -0.056913 -0.106183
v 0.987404 -0.083181 -0.106183
v 1.007637 -0.107675 -0.106183
v 1.035326 -0.122939 -0.106183
v 1.068694 -0.134654 -0.106183
v 1.096737 -0.143528 -0.106183
v 1.109516 -0.152402 -0.106183
v 1.109516 -0.163407 -0.106183
v 1.102062 -0.170151 -0.106183
v 1.066919 -0.170151 -0.106183
v 1.053785 -0.158082 -0.106183
v 1.049880 -0.139268 -0.106183
v 1.049170 -0.130749 -0.106183
v 0.972850 -0.130749 -0.106183
v 0.972850 -0.165892 -0.106183
v 0.981014 -0.185771 -0.106183
v 0.995568 -0.208489 -0.106183
v 1.020061 -0.230143 -0.106183
v 1.053074 -0.245052 -0.106183
v 1.120520 -0.245052 -0.106183
v 1.150694 -0.234403 -0.106183
v 1.175187 -0.214524 -0.106183
v 1.186546 -0.192516 -0.106183
v 1.190096 -0.171572 -0.106183
v 1.190096 -0.148499 -0.106183
v 1.184132 -0.119958 -0.106183
v 1.170369 -0.099005 -0.106183
v 1.148183 -0.081954 -0.106183
v 1.126818 -0.076408 -0.106183
v 1.106070 -0.070245 -0.106183
v 1.082446 -0.061823 -0.106183
v 1.067655 -0.053401 -0.106183
v 1.058616 -0.046211 -0.106183
v 1.058616 -0.036350 -0.106183
v 1.075872 -0.031009 -0.106183
v 1.091896 -0.035118 -0.106183
v 1.102167 -0.041691 -0.106183
v 1.106481 -0.052990 -0.106183
v -0.240803 0.357129 -0.106183
v -0.171101 0.357129 -0.106183
v -0.169681 0.377850 -0.106183
v -0.174651 0.408377 -0.106183
v -0.195949 0.444231 -0.106183
v -0.231092 0.464819 -0.106183
v -0.285404 0.469434 -0.106183
v -0.324451 0.460915 -0.106183
v -0.357109 0.437841 -0.106183
v -0.374858 0.402343 -0.106183
v -0.374858 0.369685 -0.106183
v -0.365984 0.343417 -0.106183
v -0.345750 0.318923 -0.106183
v -0.318062 0.303659 -0.106183
v -0.284694 0.291945 -0.106183
v -0.256650 0.283070 -0.106183
v -0.243871 0.274196 -0.106183
v -0.243871 0.263191 -0.106183
v -0.251326 0.256447 -0.106183
v -0.286468 0.256447 -0.106183
v -0.299603 0.268516 -0.106183
v -0.303507 0.287330 -0.106183
v -0.304217 0.295849 -0.106183
v -0.380538 0.295849 -0.106183
v -0.380538 0.260706 -0.106183
v -0.372373 0.240827 -0.106183
v -0.357819 0.218109 -0.106183
v -0.333326 0.196455 -0.106183
v -0.300313 0.181546 -0.106183
v -0.232867 0.181546 -0.106183
v -0.202694 0.192195 -0.106183
v -0.178200 0.212074 -0.106183
v -0.166841 0.234082 -0.106183
v -0.163291 0.255026 -0.106183
v -0.163291 0.278100 -0.106183
v -0.169255 0.306640 -0.106183
v -0.183018 0.327593 -0.106183
v -0.205205 0.344644 -0.106183
v -0.226569 0.350190 -0.106183
v -0.247317 0.356353 -0.106183
v -0.270941 0.364775 -0.106183
v -0.285732 0.373198 -0.106183
v -0.294771 0.380387 -0.106183
v -0.294771 0.390248 -0.106183
v -0.277515 0.395589 -0.106183
v -0.261492 0.391480 -0.106183
v -0.251220 0.384907 -0.106183
v -0.246906 0.373608 -0.106183
v -0.099334 0.456854 -0.106183
v -0.099334 0.182456 -0.106183
v -0.015914 0.182456 -0.106183
v -0.015914 0.284689 -0.106183
v 0.057921 0.179971 -0.106183
v 0.133177 0.179971 -0.106183
v 0.133177 0.210499 -0.106183
v 0.047130 0.337439 -0.106183
v 0.130195 0.424763 -0.106183
v 0.130195 0.455860 -0.106183
v 0.050964 0.455860 -0.106183
v -0.016340 0.385148 -0.106183
v -0.016340 0.456226 -0.106183
v 0.273632 0.178709 -0.106183
v 0.273632 0.289462 -0.106183
v 0.188863 0.427477 -0.106183
v 0.188863 0.458148 -0.106183
v 0.268094 0.458148 -0.106183
v 0.311175 0.376787 -0.106183
v 0.348719 0.178709 -0.106183
v 0.348719 0.289462 -0.106183
v 0.433487 0.427477 -0.106183
v 0.433487 0.458148 -0.106183
v 0.354256 0.458148 -0.106183
v -0.911454 -0.069469 -0.106183
v -0.841752 -0.069469 -0.106183
v -0.840332 -0.048748 -0.106183
v -0.845302 -0.018220 -0.106183
v -0.866601 0.017632 -0.106183
v -0.901744 0.038221 -0.106183
v -0.956055 0.042836 -0.106183
v -0.995103 0.034317 -0.106183
v -1.027761 0.011243 -0.106183
v -1.045509 -0.024255 -0.106183
v -1.045509 -0.056913 -0.106183
v -1.036635 -0.083181 -0.106183
v -1.016401 -0.107675 -0.106183
v -0.988713 -0.122939 -0.106183
v -0.955345 -0.134654 -0.106183
v -0.927302 -0.143528 -0.106183
v -0.914523 -0.152402 -0.106183
v -0.914523 -0.163407 -0.106183
v -0.921977 -0.170151 -0.106183
v -0.957120 -0.170151 -0.106183
v -0.970254 -0.158082 -0.106183
v -0.974159 -0.139268 -0.106183
v -0.974869 -0.130749 -0.106183
v -1.051189 -0.130749 -0.106183
v -1.051189 -0.165892 -0.106183
v -1.043025 -0.185771 -0.106183
v -1.028471 -0.208489 -0.106183
v -1.003977 -0.230143 -0.106183
v -0.970964 -0.245052 -0.106183
v -0.903518 -0.245052 -0.106183
v -0.873345 -0.234403 -0.106183
v -0.848852 -0.214524 -0.106183
v -0.837492 -0.192516 -0.106183
v -0.833943 -0.171572 -0.106183
v -0.833943 -0.148499 -0.106183
v -0.839906 -0.119958 -0.106183
v -0.853670 -0.099005 -0.106183
v -0.875856 -0.081954 -0.106183
v -0.897221 -0.076408 -0.106183
v -0.917969 -0.070245 -0.106183
v -0.941593 -0.061823 -0.106183
v -0.956384 -0.053401 -0.106183
v -0.965422 -0.046211 -0.106183
v -0.965422 -0.036350 -0.106183
v -0.948166 -0.031009 -0.106183
v -0.932143 -0.035118 -0.106183
v -0.921872 -0.041691 -0.106183
v -0.917558 -0.052990 -0.106183
v -0.694784 -0.059527 -0.106183
v -0.694784 0.029870 -0.106183
v -0.772655 0.029870 -0.106183
v -0.772655 -0.236823 -0.106183
v -0.694784 -0.236823 -0.106183
v -0.694784 -0.134809 -0.106183
v -0.632609 -0.059527 -0.106183
v -0.632609 0.029870 -0.106183
v -0.554738 0.029870 -0.106183
v -0.554738 -0.236823 -0.106183
v -0.632609 -0.236823 -0.106183
v -0.632609 -0.134809 -0.106183
v -0.363696 0.041883 -0.106183
v -0.389022 0.038616 -0.106183
v -0.416375 0.029635 -0.106183
v -0.444544 0.012080 -0.106183
v -0.466998 -0.013232 -0.106183
v -0.480062 -0.039768 -0.106183
v -0.488636 -0.072428 -0.106183
v -0.488636 -0.129583 -0.106183
v -0.480471 -0.157753 -0.106183
v -0.467815 -0.187147 -0.106183
v -0.443320 -0.214499 -0.106183
v -0.416375 -0.230830 -0.106183
v -0.390655 -0.240220 -0.106183
v -0.363696 -0.240220 -0.106183
v -0.363696 -0.166054 -0.106183
v -0.378453 -0.166054 -0.106183
v -0.395180 -0.153580 -0.106183
v -0.405953 -0.137703 -0.106183
v -0.410773 -0.121259 -0.106183
v -0.410773 -0.077552 -0.106183
v -0.400014 -0.050052 -0.106183
v -0.385257 -0.037387 -0.106184
v -0.363696 -0.033607 -0.106183
v -0.338371 0.038616 -0.106183
v -0.311018 0.029635 -0.106183
v -0.282848 0.012080 -0.106183
v -0.260395 -0.013232 -0.106183
v -0.247331 -0.039768 -0.106183
v -0.238757 -0.072428 -0.106183
v -0.238757 -0.129583 -0.106183
v -0.246922 -0.157753 -0.106183
v -0.259578 -0.187147 -0.106183
v -0.284073 -0.214499 -0.106183
v -0.311018 -0.230830 -0.106183
v -0.336738 -0.240220 -0.106183
v -0.348940 -0.166054 -0.106183
v -0.332213 -0.153580 -0.106183
v -0.321440 -0.137703 -0.106183
v -0.316620 -0.121259 -0.106183
v -0.316620 -0.077552 -0.106183
v -0.327379 -0.050052 -0.106183
v -0.342136 -0.037387 -0.106184
v -0.060531 0.041883 -0.106183
v -0.085857 0.038616 -0.106183
v -0.113210 0.029635 -0.106183
v -0.141379 0.012080 -0.106183
v -0.163833 -0.013232 -0.106183
v -0.176897 -0.039768 -0.106183
v -0.185470 -0.072428 -0.106183
v -0.185470 -0.129583 -0.106183
v -0.177305 -0.157753 -0.106183
v -0.164649 -0.187147 -0.106183
v -0.140154 -0.214499 -0.106183
v -0.113210 -0.230830 -0.106183
v -0.087490 -0.240220 -0.106183
v -0.060531 -0.240220 -0.106183
v -0.060531 -0.166054 -0.106183
v -0.075288 -0.166054 -0.106183
v -0.092015 -0.153580 -0.106183
v -0.102788 -0.137703 -0.106183
v -0.107607 -0.121259 -0.106183
v -0.107607 -0.077552 -0.106183
v -0.096849 -0.050052 -0.106183
v -0.082092 -0.037387 -0.106184
v -0.060531 -0.033607 -0.106183
v -0.035205 0.038616 -0.106183
v -0.007853 0.029635 -0.106183
v 0.020317 0.012080 -0.106183
v 0.042771 -0.013232 -0.106183
v 0.055835 -0.039768 -0.106183
v 0.064408 -0.072428 -0.106183
v 0.064408 -0.129583 -0.106183
v 0.056243 -0.157753 -0.106183
v 0.043587 -0.187147 -0.106183
v 0.019092 -0.214499 -0.106183
v -0.007853 -0.230830 -0.106183
v -0.033572 -0.240220 -0.106183
v -0.045775 -0.166054 -0.106183
v -0.029048 -0.153580 -0.106183
v -0.018275 -0.137703 -0.106183
v -0.013455 -0.121259 -0.106183
v -0.013455 -0.077552 -0.106183
v -0.024214 -0.050052 -0.106183
v -0.038971 -0.037387 -0.106184
v 0.226809 0.040471 -0.106183
v 0.118528 0.040471 -0.106183
v 0.118528 -0.034422 -0.106183
v 0.187924 -0.034422 -0.106183
v 0.187924 -0.232647 -0.106183
v 0.226809 -0.232647 -0.106183
v 0.335089 0.040471 -0.106183
v 0.335089 -0.034422 -0.106183
v 0.265693 -0.034422 -0.106183
v 0.265693 -0.232647 -0.106183
v 0.409842 0.040564 -0.106183
v 0.409842 -0.237923 -0.106183
v 0.616618 -0.237923 -0.106183
v 0.616618 -0.162786 -0.106183
v 0.616618 0.040564 -0.106183
v 0.616618 -0.032799 -0.106183
v 0.486163 -0.032799 -0.106183
v 0.486163 -0.057056 -0.106183
v 0.602419 -0.057056 -0.106183
v 0.486163 -0.162786 -0.106183
v 0.486163 -0.133944 -0.106183
v 0.602419 -0.133944 -0.106183
v 0.683693 0.039520 -0.106183
v 0.683695 -0.241507 -0.106183
v 0.765041 -0.241510 -0.106183
v 0.765041 -0.145366 -0.106183
v 0.818042 -0.145366 -0.106183
v 0.818042 -0.241510 -0.106183
v 0.896433 -0.241510 -0.106183
v 0.896433 -0.134030 -0.106183
v 0.891010 -0.115541 -0.106183
v 0.882628 -0.103709 -0.106183
v 0.891749 -0.088671 -0.106183
v 0.899145 -0.072648 -0.106183
v 0.899145 -0.023838 -0.106183
v 0.889284 -0.003377 -0.106183
v 0.876219 0.013879 -0.106183
v 0.852800 0.030643 -0.106183
v 0.827902 0.039520 -0.106183
v 0.764153 -0.036909 -0.106183
v 0.764153 -0.067620 -0.106183
v 0.808341 -0.067620 -0.106183
v 0.817651 -0.059496 -0.106183
v 0.808341 -0.036909 -0.106183
v 0.817651 -0.044438 -0.106183
vn -0.0000 -0.0000 1.0000
vn -0.0000 -0.0000 -1.0000
vn -1.0000 -0.0000 -0.0000
vn 0.9789 0.2045 -0.0000
vn -0.0000 -1.0000 -0.0000
vn -0.9605 -0.2784 -0.0000
vn 0.8358 0.5490 -0.0000
vn 1.0000 -0.0000 -0.0000
vn -0.9185 -0.3955 -0.0000
vn 0.6094 0.7929 -0.0000
vn -0.0000 1.0000 -0.0000
vn -0.7449 -0.6671 -0.0000
vn 0.2513 0.9679 -0.0000
vn -0.5183 -0.8552 -0.0000
vn 0.2847 0.9586 -0.0000
vn -0.3429 -0.9394 -0.0000
vn 0.3358 0.9419 -0.0000
vn 0.4948 0.8690 -0.0000
vn 0.6225 0.7826 -0.0000
vn 0.5978 0.8016 -0.0000
vn 0.8275 0.5615 -0.0000
vn 0.2957 -0.9553 -0.0000
vn 0.9596 0.2813 -0.0000
vn -0.2484 -0.9687 -0.0000
vn -0.5391 -0.8423 -0.0000
vn 0.9313 -0.3643 -0.0000
vn -0.9342 -0.3567 -0.0000
vn 0.6513 -0.7589 -0.0000
vn -0.9377 -0.3473 -0.0000
vn 0.1727 -0.9850 -0.0000
vn 0.9596 0.2815 -0.0000
vn 0.3120 0.9501 -0.0000
vn 0.8160 0.5780 -0.0000
vn 0.5289 0.8487 -0.0000
vn 0.8550 -0.5186 -0.0000
vn 0.7481 0.6636 -0.0000
vn -0.8173 -0.5762 -0.0000
vn 0.9080 -0.4191 -0.0000
vn 0.8972 0.4417 -0.0000
vn 0.9672 0.2539 -0.0000
vn 0.9008 0.4341 -0.0000
vn 0.8278 0.5611 -0.0000
vn 0.7973 0.6036 -0.0000
vn 0.9605 -0.2784 -0.0000
vn 0.7246 -0.6892 -0.0000
vn 0.5821 0.8132 -0.0000
vn 0.9185 -0.3955 -0.0000
vn 0.7449 -0.6671 -0.0000
vn 0.9977 -0.0684 -0.0000
vn 0.5183 -0.8552 -0.0000
vn -0.7243 0.6894 -0.0000
vn 0.9870 0.1607 -0.0000
vn 0.3429 -0.9394 -0.0000
vn 0.8597 0.5107 -0.0000
vn 0.0076 1.0000 -0.0000
vn 0.5055 0.8628 -0.0000
vn -0.6575 0.7535 -0.0000
vn -0.5978 0.8016 -0.0000
vn 0.0847 0.9964 -0.0000
vn -0.8275 0.5615 -0.0000
vn -0.8521 -0.5234 -0.0000
vn -0.2132 0.9770 -0.0000
vn -0.6288 -0.7775 -0.0000
vn -0.9596 0.2813 -0.0000
vn -0.5770 0.8167 -0.0000
vn -0.8944 0.4472 -0.0000
vn -0.9313 -0.3643 -0.0000
vn 0.8838 0.4680 -0.0000
vn -0.6513 -0.7589 -0.0000
vn -0.9474 -0.3201 -0.0000
vn 0.1279 0.9918 -0.0000
vn 0.8521 -0.5234 -0.0000
vn -0.7710 -0.6369 -0.0000
vn -0.1727 -0.9850 -0.0000
vn -0.4828 -0.8757 -0.0000
vn -0.3312 -0.9435 -0.0000
vn -0.3017 -0.9534 -0.0000
vn -0.8838 0.4680 -0.0000
vn -0.5704 -0.8214 -0.0000
vn -0.6709 0.7415 -0.0000
vn 0.6766 0.7363 -0.0000
vn -0.1279 0.9918 -0.0000
vn 0.9791 0.2032 -0.0000
vn -0.3120 0.9501 -0.0000
vn 0.9965 0.0831 -0.0000
vn -0.5289 0.8487 -0.0000
vn -0.7481 0.6636 -0.0000
vn -0.8972 0.4417 -0.0000
vn -0.9250 -0.3799 -0.0000
vn -0.9672 0.2539 -0.0000
vn -0.8420 -0.5394 -0.0000
vn -0.6623 -0.7492 -0.0000
vn -0.4116 -0.9114 -0.0000
vn 0.3328 -0.9430 -0.0000
vn 0.6302 -0.7765 -0.0000
vn 0.8886 -0.4586 -0.0000
vn 0.9859 -0.1671 -0.0000
vn -0.5390 -0.8423 -0.0000
s 0
f 2//1 3//1 4//1 5//1 6//1 7//1 8//1 9//1 10//1 11//1 12//1 13//1 14//1 15//1 16//1 17//1 18//1 19//1 20//1 21//1 22//1 23//1 24//1 25//1 26//1 27//1 28//1 29//1 30//1 31//1 32//1 33//1 34//1 35//1 36//1 37//1 38//1 39//1 40//1 41//1 42//1 43//1 44//1 45//1 46//1 47//1 48//1 1//1
f 50//1 51//1 52//1 53//1 54//1 55//1 56//1 57//1 58//1 59//1 60//1 61//1 62//1 63//1 64//1 65//1 66//1 67//1 68//1 69//1 70//1 71//1 72//1 73//1 74//1 75//1 76//1 77//1 78//1 79//1 80//1 81//1 82//1 83//1 84//1 85//1 86//1 87//1 88//1 89//1 90//1 91//1 92//1 93//1 94//1 95//1 96//1 49//1
f 98//1 99//1 100//1 101//1 102//1 103//1 104//1 105//1 106//1 107//1 108//1 109//1 97//1
f 111//1 110//1 116//1 117//1 118//1 119//1 120//1 115//1 114//1 113//1 112//1
f 122//1 123//1 124//1 125//1 126//1 127//1 128//1 129//1 130//1 131//1 132//1 133//1 134//1 135//1 136//1 137//1 138//1 139//1 140//1 141//1 142//1 143//1 144//1 145//1 146//1 147//1 148//1 149//1 150//1 151//1 152//1 153//1 154//1 155//1 156//1 157//1 158//1 159//1 160//1 161//1 162//1 163//1 164//1 165//1 166//1 167//1 168//1 121//1
f 170//1 171//1 172//1 173//1 174//1 180//1 179//1 178//1 177//1 176//1 175//1 169//1
f 209//1 220//1 219//1 210//1
f 187//1 188//1 199//1 200//1
f 203//1 181//1 182//1 183//1 184//1 185//1 186//1 187//1 200//1 201//1 202//1
f 203//1 222//1 221//1 220//1 209//1 208//1 207//1 206//1 205//1 204//1 181//1
f 219//1 218//1 217//1 216//1 195//1 194//1 215//1 214//1 213//1 212//1 211//1 210//1
f 199//1 188//1 189//1 190//1 191//1 192//1 193//1 194//1 195//1 196//1 197//1 198//1
f 251//1 262//1 261//1 252//1
f 229//1 230//1 241//1 242//1
f 245//1 223//1 224//1 225//1 226//1 227//1 228//1 229//1 242//1 243//1 244//1
f 245//1 264//1 263//1 262//1 251//1 250//1 249//1 248//1 247//1 246//1 223//1
f 261//1 260//1 259//1 258//1 237//1 236//1 257//1 256//1 255//1 254//1 253//1 252//1
f 241//1 230//1 231//1 232//1 233//1 234//1 235//1 236//1 237//1 238//1 239//1 240//1
f 266//1 267//1 268//1 269//1 270//1 274//1 273//1 272//1 271//1 265//1
f 275//1 276//1 277//1 278//1 284//1 285//1 286//1 283//1 282//1 281//1 280//1 279//1
f 292//1 293//1 294//1 291//1
f 291//1 306//1 305//1 290//1
f 295//1 296//1 297//1 298//1 307//1 306//1 291//1 294//1
f 299//1 309//1 307//1 298//1
f 305//1 304//1 308//1 309//1 299//1 300//1 301//1 302//1 303//1 287//1 288//1 289//1 290//1
f 311//2 310//2 357//2 356//2 355//2 354//2 353//2 352//2 351//2 350//2 349//2 348//2 347//2 346//2 345//2 344//2 343//2 342//2 341//2 340//2 339//2 338//2 337//2 336//2 335//2 334//2 333//2 332//2 331//2 330//2 329//2 328//2 327//2 326//2 325//2 324//2 323//2 322//2 321//2 320//2 319//2 318//2 317//2 316//2 315//2 314//2 313//2 312//2
f 359//2 358//2 405//2 404//2 403//2 402//2 401//2 400//2 399//2 398//2 397//2 396//2 395//2 394//2 393//2 392//2 391//2 390//2 389//2 388//2 387//2 386//2 385//2 384//2 383//2 382//2 381//2 380//2 379//2 378//2 377//2 376//2 375//2 374//2 373//2 372//2 371//2 370//2 369//2 368//2 367//2 366//2 365//2 364//2 363//2 362//2 361//2 360//2
f 407//2 406//2 418//2 417//2 416//2 415//2 414//2 413//2 412//2 411//2 410//2 409//2 408//2
f 420//2 421//2 422//2 423//2 424//2 429//2 428//2 427//2 426//2 425//2 419//2
f 431//2 430//2 477//2 476//2 475//2 474//2 473//2 472//2 471//2 470//2 469//2 468//2 467//2 466//2 465//2 464//2 463//2 462//2 461//2 460//2 459//2 458//2 457//2 456//2 455//2 454//2 453//2 452//2 451//2 450//2 449//2 448//2 447//2 446//2 445//2 444//2 443//2 442//2 441//2 440//2 439//2 438//2 437//2 436//2 435//2 434//2 433//2 432//2
f 479//2 478//2 484//2 485//2 486//2 487//2 488//2 489//2 483//2 482//2 481//2 480//2
f 518//2 519//2 528//2 529//2
f 496//2 509//2 508//2 497//2
f 512//2 511//2 510//2 509//2 496//2 495//2 494//2 493//2 492//2 491//2 490//2
f 512//2 490//2 513//2 514//2 515//2 516//2 517//2 518//2 529//2 530//2 531//2
f 528//2 519//2 520//2 521//2 522//2 523//2 524//2 503//2 504//2 525//2 526//2 527//2
f 508//2 507//2 506//2 505//2 504//2 503//2 502//2 501//2 500//2 499//2 498//2 497//2
f 560//2 561//2 570//2 571//2
f 538//2 551//2 550//2 539//2
f 554//2 553//2 552//2 551//2 538//2 537//2 536//2 535//2 534//2 533//2 532//2
f 554//2 532//2 555//2 556//2 557//2 558//2 559//2 560//2 571//2 572//2 573//2
f 570//2 561//2 562//2 563//2 564//2 565//2 566//2 545//2 546//2 567//2 568//2 569//2
f 550//2 549//2 548//2 547//2 546//2 545//2 544//2 543//2 542//2 541//2 540//2 539//2
f 575//2 574//2 580//2 581//2 582//2 583//2 579//2 578//2 577//2 576//2
f 584//2 588//2 589//2 590//2 591//2 592//2 595//2 594//2 593//2 587//2 586//2 585//2
f 601//2 600//2 603//2 602//2
f 600//2 599//2 614//2 615//2
f 604//2 603//2 600//2 615//2 616//2 607//2 606//2 605//2
f 608//2 607//2 616//2 618//2
f 614//2 599//2 598//2 597//2 596//2 612//2 611//2 610//2 609//2 608//2 618//2 617//2 613//2
f 188//3 187//3 496//3 497//3
f 83//4 392//4 393//4 84//4
f 281//5 590//5 589//5 280//5
f 189//6 188//6 497//6 498//6
f 84//7 393//7 394//7 85//7
f 282//8 591//8 590//8 281//8
f 190//9 189//9 498//9 499//9
f 85//10 394//10 395//10 86//10
f 283//11 592//11 591//11 282//11
f 191//12 190//12 499//12 500//12
f 86//13 395//13 396//13 87//13
f 278//11 587//11 593//11 284//11
f 192//14 191//14 500//14 501//14
f 87//15 396//15 397//15 88//15
f 284//8 593//8 594//8 285//8
f 193//16 192//16 501//16 502//16
f 88//17 397//17 398//17 89//17
f 285//5 594//5 595//5 286//5
f 194//5 193//5 502//5 503//5
f 89//18 398//18 399//18 90//18
f 286//8 595//8 592//8 283//8
f 196//11 195//11 504//11 505//11
f 90//19 399//19 400//19 91//19
f 288//3 287//3 596//3 597//3
f 197//20 196//20 505//20 506//20
f 91//8 400//8 401//8 92//8
f 289//5 288//5 597//5 598//5
f 198//21 197//21 506//21 507//21
f 92//22 401//22 402//22 93//22
f 290//8 289//8 598//8 599//8
f 199//23 198//23 507//23 508//23
f 93//24 402//24 403//24 94//24
f 291//5 290//5 599//5 600//5
f 200//8 199//8 508//8 509//8
f 94//25 403//25 404//25 95//25
f 291//3 600//3 601//3 292//3
f 201//26 200//26 509//26 510//26
f 95//27 404//27 405//27 96//27
f 292//5 601//5 602//5 293//5
f 202//28 201//28 510//28 511//28
f 96//29 405//29 358//29 49//29
f 293//8 602//8 603//8 294//8
f 203//30 202//30 511//30 512//30
f 98//3 97//3 406//3 407//3
f 294//31 603//31 604//31 295//31
f 204//32 205//32 514//32 513//32
f 99//5 98//5 407//5 408//5
f 295//33 604//33 605//33 296//33
f 205//34 206//34 515//34 514//34
f 100//8 99//8 408//8 409//8
f 296//35 605//35 606//35 297//35
f 206//36 207//36 516//36 515//36
f 101//37 100//37 409//37 410//37
f 297//38 606//38 607//38 298//38
f 207//39 208//39 517//39 516//39
f 102//5 101//5 410//5 411//5
f 298//8 607//8 608//8 299//8
f 208//40 209//40 518//40 517//40
f 103//8 102//8 411//8 412//8
f 300//41 299//41 608//41 609//41
f 209//8 210//8 519//8 518//8
f 104//42 103//42 412//42 413//42
f 301//43 300//43 609//43 610//43
f 210//44 211//44 520//44 519//44
f 105//45 104//45 413//45 414//45
f 302//46 301//46 610//46 611//46
f 211//47 212//47 521//47 520//47
f 106//8 105//8 414//8 415//8
f 1//5 310//5 311//5 2//5
f 303//17 302//17 611//17 612//17
f 212//48 213//48 522//48 521//48
f 107//11 106//11 415//11 416//11
f 2//49 311//49 312//49 3//49
f 304//8 305//8 614//8 613//8
f 213//50 214//50 523//50 522//50
f 108//51 107//51 416//51 417//51
f 3//52 312//52 313//52 4//52
f 287//11 303//11 612//11 596//11
f 214//53 215//53 524//53 523//53
f 109//8 108//8 417//8 418//8
f 4//54 313//54 314//54 5//54
f 305//11 306//11 615//11 614//11
f 215//5 194//5 503//5 524//5
f 97//55 109//55 418//55 406//55
f 5//56 314//56 315//56 6//56
f 307//57 616//57 615//57 306//57
f 216//58 217//58 526//58 525//58
f 110//3 111//3 420//3 419//3
f 6//59 315//59 316//59 7//59
f 308//5 304//5 613//5 617//5
f 217//60 218//60 527//60 526//60
f 111//61 112//61 421//61 420//61
f 7//62 316//62 317//62 8//62
f 309//63 308//63 617//63 618//63
f 218//64 219//64 528//64 527//64
f 112//3 113//3 422//3 421//3
f 8//65 317//65 318//65 9//65
f 309//3 618//3 616//3 307//3
f 219//3 220//3 529//3 528//3
f 113//11 114//11 423//11 422//11
f 9//66 318//66 319//66 10//66
f 220//67 221//67 530//67 529//67
f 114//68 115//68 424//68 423//68
f 10//3 319//3 320//3 11//3
f 221//69 222//69 531//69 530//69
f 117//8 116//8 425//8 426//8
f 11//70 320//70 321//70 12//70
f 181//71 204//71 513//71 490//71
f 118//72 117//72 426//72 427//72
f 12//73 321//73 322//73 13//73
f 222//74 203//74 512//74 531//74
f 119//8 118//8 427//8 428//8
f 13//75 322//75 323//75 14//75
f 195//11 216//11 525//11 504//11
f 120//11 119//11 428//11 429//11
f 14//76 323//76 324//76 15//76
f 116//5 110//5 419//5 425//5
f 15//77 324//77 325//77 16//77
f 115//78 120//78 429//78 424//78
f 16//79 325//79 326//79 17//79
f 121//5 430//5 431//5 122//5
f 17//3 326//3 327//3 18//3
f 122//49 431//49 432//49 123//49
f 18//80 327//80 328//80 19//80
f 123//52 432//52 433//52 124//52
f 19//11 328//11 329//11 20//11
f 124//54 433//54 434//54 125//54
f 20//81 329//81 330//81 21//81
f 224//82 223//82 532//82 533//82
f 125//56 434//56 435//56 126//56
f 21//83 330//83 331//83 22//83
f 225//84 224//84 533//84 534//84
f 126//59 435//59 436//59 127//59
f 22//85 331//85 332//85 23//85
f 226//86 225//86 534//86 535//86
f 127//62 436//62 437//62 128//62
f 23//11 332//11 333//11 24//11
f 227//87 226//87 535//87 536//87
f 128//65 437//65 438//65 129//65
f 24//3 333//3 334//3 25//3
f 228//88 227//88 536//88 537//88
f 129//66 438//66 439//66 130//66
f 25//89 334//89 335//89 26//89
f 229//90 228//90 537//90 538//90
f 130//3 439//3 440//3 131//3
f 26//91 335//91 336//91 27//91
f 230//3 229//3 538//3 539//3
f 131//70 440//70 441//70 132//70
f 27//92 336//92 337//92 28//92
f 231//6 230//6 539//6 540//6
f 132//73 441//73 442//73 133//73
f 28//93 337//93 338//93 29//93
f 232//9 231//9 540//9 541//9
f 133//75 442//75 443//75 134//75
f 29//5 338//5 339//5 30//5
f 233//12 232//12 541//12 542//12
f 134//76 443//76 444//76 135//76
f 30//94 339//94 340//94 31//94
f 234//14 233//14 542//14 543//14
f 135//77 444//77 445//77 136//77
f 31//95 340//95 341//95 32//95
f 235//16 234//16 543//16 544//16
f 136//79 445//79 446//79 137//79
f 32//96 341//96 342//96 33//96
f 236//5 235//5 544//5 545//5
f 137//3 446//3 447//3 138//3
f 33//97 342//97 343//97 34//97
f 238//11 237//11 546//11 547//11
f 138//80 447//80 448//80 139//80
f 34//8 343//8 344//8 35//8
f 239//20 238//20 547//20 548//20
f 139//11 448//11 449//11 140//11
f 35//4 344//4 345//4 36//4
f 240//21 239//21 548//21 549//21
f 140//81 449//81 450//81 141//81
f 36//7 345//7 346//7 37//7
f 241//23 240//23 549//23 550//23
f 141//83 450//83 451//83 142//83
f 37//10 346//10 347//10 38//10
f 242//8 241//8 550//8 551//8
f 142//85 451//85 452//85 143//85
f 38//13 347//13 348//13 39//13
f 243//26 242//26 551//26 552//26
f 143//11 452//11 453//11 144//11
f 39//15 348//15 349//15 40//15
f 244//28 243//28 552//28 553//28
f 144//3 453//3 454//3 145//3
f 40//17 349//17 350//17 41//17
f 245//30 244//30 553//30 554//30
f 145//89 454//89 455//89 146//89
f 41//18 350//18 351//18 42//18
f 246//32 247//32 556//32 555//32
f 146//91 455//91 456//91 147//91
f 42//19 351//19 352//19 43//19
f 247//34 248//34 557//34 556//34
f 147//92 456//92 457//92 148//92
f 43//8 352//8 353//8 44//8
f 248//36 249//36 558//36 557//36
f 148//93 457//93 458//93 149//93
f 44//22 353//22 354//22 45//22
f 249//39 250//39 559//39 558//39
f 149//5 458//5 459//5 150//5
f 45//24 354//24 355//24 46//24
f 250//40 251//40 560//40 559//40
f 150//94 459//94 460//94 151//94
f 46//25 355//25 356//25 47//25
f 251//8 252//8 561//8 560//8
f 151//95 460//95 461//95 152//95
f 47//27 356//27 357//27 48//27
f 252//44 253//44 562//44 561//44
f 152//96 461//96 462//96 153//96
f 48//29 357//29 310//29 1//29
f 253//47 254//47 563//47 562//47
f 153//97 462//97 463//97 154//97
f 49//5 358//5 359//5 50//5
f 254//48 255//48 564//48 563//48
f 154//8 463//8 464//8 155//8
f 50//49 359//49 360//49 51//49
f 255//50 256//50 565//50 564//50
f 155//4 464//4 465//4 156//4
f 51//52 360//52 361//52 52//52
f 256//53 257//53 566//53 565//53
f 156//7 465//7 466//7 157//7
f 52//54 361//54 362//54 53//54
f 257//5 236//5 545//5 566//5
f 157//10 466//10 467//10 158//10
f 53//56 362//56 363//56 54//56
f 258//58 259//58 568//58 567//58
f 158//13 467//13 468//13 159//13
f 54//59 363//59 364//59 55//59
f 259//60 260//60 569//60 568//60
f 159//15 468//15 469//15 160//15
f 55//62 364//62 365//62 56//62
f 260//64 261//64 570//64 569//64
f 160//17 469//17 470//17 161//17
f 56//65 365//65 366//65 57//65
f 261//3 262//3 571//3 570//3
f 161//18 470//18 471//18 162//18
f 57//66 366//66 367//66 58//66
f 262//67 263//67 572//67 571//67
f 162//19 471//19 472//19 163//19
f 58//3 367//3 368//3 59//3
f 263//69 264//69 573//69 572//69
f 163//8 472//8 473//8 164//8
f 59//70 368//70 369//70 60//70
f 223//71 246//71 555//71 532//71
f 164//22 473//22 474//22 165//22
f 60//73 369//73 370//73 61//73
f 264//74 245//74 554//74 573//74
f 165//24 474//24 475//24 166//24
f 61//75 370//75 371//75 62//75
f 237//11 258//11 567//11 546//11
f 166//98 475//98 476//98 167//98
f 62//76 371//76 372//76 63//76
f 167//27 476//27 477//27 168//27
f 63//77 372//77 373//77 64//77
f 168//29 477//29 430//29 121//29
f 64//79 373//79 374//79 65//79
f 169//8 478//8 479//8 170//8
f 65//3 374//3 375//3 66//3
f 170//11 479//11 480//11 171//11
f 66//80 375//80 376//80 67//80
f 171//3 480//3 481//3 172//3
f 67//11 376//11 377//11 68//11
f 172//5 481//5 482//5 173//5
f 68//81 377//81 378//81 69//81
f 265//11 574//11 575//11 266//11
f 173//8 482//8 483//8 174//8
f 69//83 378//83 379//83 70//83
f 266//3 575//3 576//3 267//3
f 176//3 485//3 484//3 175//3
f 70//85 379//85 380//85 71//85
f 267//5 576//5 577//5 268//5
f 177//11 486//11 485//11 176//11
f 71//11 380//11 381//11 72//11
f 268//3 577//3 578//3 269//3
f 178//8 487//8 486//8 177//8
f 72//3 381//3 382//3 73//3
f 269//5 578//5 579//5 270//5
f 179//5 488//5 487//5 178//5
f 73//89 382//89 383//89 74//89
f 270//5 579//5 583//5 274//5
f 180//3 489//3 488//3 179//3
f 74//91 383//91 384//91 75//91
f 272//8 581//8 580//8 271//8
f 175//11 484//11 478//11 169//11
f 75//92 384//92 385//92 76//92
f 273//5 582//5 581//5 272//5
f 174//5 483//5 489//5 180//5
f 76//93 385//93 386//93 77//93
f 274//8 583//8 582//8 273//8
f 182//82 181//82 490//82 491//82
f 77//5 386//5 387//5 78//5
f 271//11 580//11 574//11 265//11
f 183//84 182//84 491//84 492//84
f 78//94 387//94 388//94 79//94
f 275//3 584//3 585//3 276//3
f 184//86 183//86 492//86 493//86
f 79//95 388//95 389//95 80//95
f 276//5 585//5 586//5 277//5
f 185//87 184//87 493//87 494//87
f 80//96 389//96 390//96 81//96
f 277//8 586//8 587//8 278//8
f 186//88 185//88 494//88 495//88
f 81//97 390//97 391//97 82//97
f 279//11 588//11 584//11 275//11
f 187//90 186//90 495//90 496//90
f 82//8 391//8 392//8 83//8
f 280//8 589//8 588//8 279//8
